  <svg version="1.0" xmlns="http://www.w3.org/2000/svg"  width="400.000000pt" height="200.000000pt" viewBox="0 0 400.000000 200.000000"  preserveAspectRatio="xMidYMid meet"> <g transform="translate(0.000000,200.000000) scale(0.100000,-0.100000)" fill="#000000" stroke="none"> <path d="M1292 1595 c-12 -9 -37 -41 -55 -73 -63 -107 -249 -397 -273 -425 -32 -38 -24 -47 43 -44 56 2 56 2 155 162 55 88 109 179 120 203 20 45 34 49 52 16 6 -10 30 -49 53 -85 24 -37 43 -70 43 -74 0 -3 -36 -5 -80 -4 -43 2 -81 1 -83 -1 -1 -3 -15 -21 -29 -41 -15 -20 -25 -39 -22 -41 3 -3 64 -3 137 0 133 5 133 5 173 -64 39 -69 39 -69 98 -72 74 -4 83 5 48 46 -15 18 -90 132 -167 254 -171 273 -170 272 -213 243z"/> <path d="M295 1590 c-3 -5 -2 -10 3 -10 5 0 75 -72 156 -160 148 -161 148 -161 144 -263 -3 -102 -3 -102 51 -102 55 0 55 0 52 106 -2 104 -2 107 23 126 14 11 42 40 62 64 19 24 78 87 129 140 52 53 91 99 88 103 -4 3 -34 6 -68 6 -59 0 -64 -2 -88 -32 -15 -18 -49 -58 -78 -88 -28 -30 -62 -72 -76 -92 -28 -41 -47 -48 -61 -21 -6 9 -52 65 -103 124 -94 108 -94 108 -161 109 -37 0 -70 -4 -73 -10z"/> <path d="M1846 1592 c-3 -5 -6 -128 -6 -273 -1 -264 -1 -264 50 -264 52 0 52 0 53 270 1 270 1 270 -45 273 -25 2 -49 -1 -52 -6z"/> <path d="M2143 1485 c-83 -63 -157 -123 -163 -135 -17 -31 -1 -50 122 -143 62 -46 133 -101 158 -120 41 -33 51 -36 120 -38 93 -3 96 8 18 59 -31 20 -108 74 -172 120 -63 45 -120 82 -126 82 -28 0 -4 38 40 65 108 65 299 201 300 213 0 8 -21 12 -72 11 -73 0 -73 0 -225 -114z"/> <path d="M2620 1596 c0 -4 -1 -126 -1 -273 0 -268 0 -268 50 -271 28 -2 51 1 51 5 0 4 1 127 1 273 1 265 1 265 -50 268 -28 2 -51 1 -51 -2z"/> <path d="M2920 1593 c-1 -2 -1 -123 -1 -270 -1 -268 -1 -268 53 -268 50 0 53 1 51 25 0 14 -2 113 -3 220 -2 193 -2 195 19 194 11 0 93 -1 180 -2 195 -2 206 -8 206 -97 0 -50 -3 -60 -29 -82 -28 -23 -34 -24 -160 -23 -72 1 -137 1 -144 1 -9 -1 -12 -14 -10 -43 3 -43 3 -43 112 -44 108 -1 108 -1 178 -78 70 -76 70 -76 139 -76 38 0 69 4 69 9 0 5 -35 40 -77 77 -43 37 -79 73 -81 80 -2 7 12 20 31 29 101 47 102 235 1 311 -33 25 -47 29 -113 31 -147 5 -421 8 -421 6z"/> <path d="M3076 941 c-15 -17 -17 -46 -18 -247 -1 -229 -1 -229 47 -232 48 -3 48 -3 42 172 -4 97 -5 176 -4 176 2 0 75 -70 163 -156 209 -204 218 -211 249 -194 25 13 25 13 27 242 0 125 1 234 2 241 1 8 -14 12 -44 12 -45 0 -45 0 -44 -177 0 -98 -1 -178 -4 -178 -2 0 -38 35 -80 78 -137 139 -292 282 -306 282 -7 0 -21 -9 -30 -19z"/> <path d="M554 940 c-197 -21 -267 -276 -114 -414 60 -54 79 -59 268 -64 172 -4 172 -4 172 45 0 49 0 49 -151 45 -129 -4 -156 -2 -190 14 -78 34 -110 134 -70 212 34 65 57 72 245 72 166 0 166 0 166 51 0 50 0 50 -137 47 -76 -1 -161 -5 -189 -8z"/> <path d="M1215 941 c-122 -17 -198 -106 -198 -231 0 -80 23 -129 86 -187 54 -50 86 -58 227 -58 129 0 181 17 238 79 107 116 80 297 -55 372 -47 26 -202 39 -298 25z m253 -108 c65 -33 91 -133 53 -203 -30 -57 -87 -80 -198 -80 -115 0 -162 19 -193 80 -35 69 -14 170 43 202 50 28 240 28 295 1z"/> <path d="M1295 730 c-15 -16 -17 -26 -9 -48 13 -38 70 -44 96 -10 22 29 22 34 -2 58 -26 26 -62 26 -85 0z"/> <path d="M1786 942 c-11 -11 -7 -480 5 -484 5 -2 28 -2 50 0 39 4 39 4 37 245 -3 241 -3 241 -45 243 -23 1 -44 -1 -47 -4z"/> <path d="M2193 939 c-4 -4 -5 -45 -2 -91 3 -46 4 -88 2 -93 -2 -6 -54 -10 -131 -10 -127 0 -127 0 -127 -35 0 -35 0 -35 124 -36 73 -1 126 -5 130 -12 3 -5 4 -49 1 -96 -6 -108 -7 -106 45 -106 44 0 44 0 47 236 2 150 -1 238 -7 242 -15 9 -73 10 -82 1z"/> <path d="M2450 942 c-5 -510 -21 -477 226 -477 229 0 229 0 229 45 0 44 0 44 -183 45 -183 0 -183 0 -183 150 0 150 0 150 183 150 183 0 183 0 183 45 0 45 0 45 -227 47 -126 0 -228 -2 -228 -5z"/> <path d="M2604 741 c-2 -2 -4 -19 -4 -38 0 -34 0 -34 143 -31 142 3 142 3 142 37 0 34 0 34 -138 35 -76 1 -141 -1 -143 -3z"/> <path d="M1913 364 c-10 -26 11 -49 46 -52 37 -4 39 -18 6 -56 -31 -37 -15 -68 18 -33 45 48 48 110 4 115 -15 2 -32 12 -37 23 -13 23 -28 25 -37 3z"/> <path d="M886 335 c-3 -9 1 -18 9 -21 8 -4 15 -17 15 -30 0 -15 6 -24 15 -24 22 0 21 76 -1 84 -24 9 -31 7 -38 -9z"/> <path d="M1008 342 c-38 -3 -38 -3 -38 -51 0 -26 -5 -52 -12 -59 -9 -9 -7 -13 5 -18 25 -9 37 4 37 40 0 33 15 56 37 56 8 0 13 -13 13 -35 0 -24 -5 -35 -15 -35 -8 0 -15 -7 -15 -16 0 -11 8 -14 33 -12 36 3 44 24 32 84 -7 39 -26 51 -77 46z"/> <path d="M1114 336 c-3 -8 -2 -21 3 -28 4 -7 8 -31 8 -53 0 -30 4 -41 18 -43 28 -6 25 113 -3 128 -16 9 -22 8 -26 -4z"/> <path d="M1192 338 c-14 -13 -1 -128 14 -128 10 0 14 14 14 51 0 47 2 50 23 47 19 -3 22 -9 22 -48 0 -33 4 -45 15 -45 19 0 27 90 10 110 -12 14 -86 25 -98 13z"/> <path d="M1530 332 c0 -15 7 -22 28 -24 22 -2 28 -8 30 -35 3 -30 1 -32 -34 -35 -69 -6 -53 -28 20 -28 52 0 66 3 66 15 0 8 -4 15 -10 15 -5 0 -10 17 -10 39 0 43 -13 58 -58 67 -28 6 -32 4 -32 -14z"/> <path d="M1655 340 c-9 -15 4 -27 35 -32 22 -3 25 -8 25 -48 0 -39 3 -45 23 -48 20 -3 22 0 22 51 0 35 -5 59 -14 66 -21 18 -82 25 -91 11z"/> <path d="M1853 343 c-16 -6 -17 -33 -2 -33 6 0 9 -6 6 -14 -7 -17 18 -40 33 -31 32 19 -2 90 -37 78z"/> <path d="M2045 340 c-10 -16 13 -30 48 -30 31 0 34 -15 11 -48 -20 -29 -11 -61 12 -41 50 42 55 119 6 119 -15 0 -37 3 -48 6 -12 3 -25 0 -29 -6z"/> <path d="M2254 338 c-3 -5 -1 -14 4 -21 6 -7 12 -30 14 -51 2 -23 10 -43 20 -50 26 -16 33 0 21 47 -10 34 -9 43 3 50 8 4 14 12 14 16 0 12 -70 19 -76 9z"/> <path d="M2353 334 c-3 -9 -1 -19 6 -23 7 -5 11 -26 9 -52 -2 -34 0 -44 12 -44 11 0 16 14 18 57 3 49 0 58 -18 68 -16 9 -22 8 -27 -6z"/> <path d="M2459 343 c-24 -4 -27 -9 -32 -66 -6 -68 -5 -72 18 -64 9 4 15 19 15 36 0 42 9 61 31 61 29 0 27 -66 -2 -73 -29 -8 -14 -27 22 -27 31 0 34 9 29 85 -1 30 -24 56 -44 54 -6 -1 -23 -4 -37 -6z"/> <path d="M2696 342 c-3 -3 -3 -15 0 -27 9 -36 -15 -41 -29 -6 -11 29 -30 40 -41 23 -9 -16 63 -162 81 -162 15 0 18 36 3 45 -16 10 -11 41 10 60 26 23 26 61 1 68 -11 3 -22 2 -25 -1z"/> <path d="M3050 335 c-8 -10 -7 -16 3 -22 9 -4 17 -19 19 -33 5 -40 23 -29 26 16 3 34 0 42 -17 47 -11 3 -25 -1 -31 -8z"/> <path d="M1328 291 c2 -30 0 -51 -7 -55 -21 -13 -11 -27 17 -24 26 3 27 5 24 51 -4 46 -3 48 20 45 20 -3 23 -8 23 -48 0 -35 4 -45 18 -48 14 -3 17 4 17 50 0 66 -11 78 -71 78 -46 0 -46 0 -41 -49z"/> <path d="M2170 335 c0 -3 4 -13 9 -23 5 -9 12 -25 15 -34 13 -42 43 -7 32 37 -5 18 -13 25 -31 25 -14 0 -25 -2 -25 -5z"/> <path d="M2760 331 c0 -6 5 -13 10 -16 6 -4 10 -28 8 -53 -3 -41 -1 -47 17 -47 17 0 20 7 21 44 2 65 -5 81 -32 81 -13 0 -24 -4 -24 -9z"/> <path d="M2830 330 c0 -5 9 -25 20 -45 20 -35 20 -35 0 -55 -32 -32 -14 -43 28 -20 47 27 89 87 75 109 -17 27 -44 26 -42 -1 4 -49 0 -61 -16 -48 -8 7 -15 20 -15 29 0 9 -5 22 -12 29 -14 14 -38 16 -38 2z"/> <path d="M2970 331 c0 -6 5 -13 10 -16 6 -3 10 -17 10 -31 0 -15 6 -24 15 -24 11 0 15 11 15 40 0 36 -2 40 -25 40 -14 0 -25 -4 -25 -9z"/> <path d="M2037 243 c-5 -49 4 -73 29 -73 21 0 13 114 -8 118 -11 2 -17 -9 -21 -45z"/> </g> </svg> 